<svg baseProfile="full" height="200" version="1.1" width="200" xmlns="http://www.w3.org/2000/svg" xmlns:ev="http://www.w3.org/2001/xml-events" xmlns:xlink="http://www.w3.org/1999/xlink"><defs><style type="text/css"><![CDATA[.background path {fill: #808080; fill-opacity: 0}.background path:nth-child(odd) {fill-opacity: .1}.x-regions rect {fill: yellow; stroke: black; opacity: 0.5}.axes {font-size: 14px}.x-axis .tick .lab {font-weight: bold; dominant-baseline: hanging}.axes, .tree {font-size: 14px; text-anchor: middle}.axes line, .edge {stroke: black; fill: none}.axes .ax-skip {stroke-dasharray: 4}.y-axis .grid {stroke: #FAFAFA}.node > .sym {fill: black; stroke: none}.site > .sym {stroke: black}.mut text {fill: red; font-style: italic}.mut.extra text {fill: hotpink}.mut line {fill: none; stroke: none}.mut .sym {fill: none; stroke: red}.mut.extra .sym {stroke: hotpink}.node .mut .sym {stroke-width: 1.5px}.tree text, .tree-sequence text {dominant-baseline: central}.plotbox .lab.lft {text-anchor: end}.plotbox .lab.rgt {text-anchor: start}.polytomy line {stroke: black; stroke-dasharray: 1px, 1px}.polytomy text {paint-order:stroke;stroke-width:0.3em;stroke:white}]]></style></defs><g class="tree-sequence"><g class="background"><path d="M20,0 l160,0 l0,138.2 l0,25 l0,5 l-160,0 l0,-5 l0,-25 l0,-138.2z" /></g><g class="axes"><g class="x-axis"><g class="title" transform="translate(100 200)"><text class="lab" text-anchor="middle" transform="translate(0 -11)">Genome position</text></g><line class="ax-line" x1="20" x2="180" y1="163.2" y2="163.2" /><g class="ticks"><g class="tick" transform="translate(20 163.2)"><line x1="0" x2="0" y1="0" y2="5" /><g transform="translate(0 6)"><text class="lab">0</text></g></g><g class="tick" transform="translate(180 163.2)"><line x1="0" x2="0" y1="0" y2="5" /><g transform="translate(0 6)"><text class="lab">1</text></g></g></g><g class="site s0" transform="translate(129.156 163.2)"><line class="sym" x1="0" x2="0" y1="0" y2="-10" /><g class="mut m0"><polyline class="sym" points="2.5,-6.5 0,-1.5 -2.5,-6.5" /></g></g></g></g><g class="plotbox trees"><g class="tree t0" transform="translate(20 0)"><g class="plotbox"><g class="c2 node n50 p0 root" transform="translate(91.0417 26.8)"><g class="a50 c1 node n46 p0" transform="translate(-35.2083 32.8596)"><g class="a46 c2 node n45 p0" transform="translate(0.0 14.7933)"><g class="a45 c2 node n21 p0" transform="translate(-26.25 39.0107)"><g class="a21 c1 node n12 p0" transform="translate(-6.25 7.25447)"><g class="a12 leaf node n0 p0 sample" transform="translate(0.0 0.681936)"><path class="edge" d="M 0 0 V -0.681936 H 0.0" /><rect class="sym" height="6" width="6" x="-3" y="-3" /><text class="lab" transform="translate(0 11)">0</text></g><path class="edge" d="M 0 0 V -7.25447 H 6.25" /><circle class="sym" cx="0" cy="0" r="3" /><text class="lab lft" transform="translate(-3 -7)">12</text></g><g class="a21 c2 node n17 p0" transform="translate(6.25 1.65528)"><g class="a17 leaf node n1 p0 sample" transform="translate(-5.83333 6.28113)"><path class="edge" d="M 0 0 V -6.28113 H 5.83333" /><rect class="sym" height="6" width="6" x="-3" y="-3" /><text class="lab" transform="translate(0 11)">1</text></g><g class="a17 c2 node n16 p0" transform="translate(5.83333 3.85116)"><g class="a16 leaf node n2 p0 sample" transform="translate(-5 2.42998)"><path class="edge" d="M 0 0 V -2.42998 H 5" /><rect class="sym" height="6" width="6" x="-3" y="-3" /><text class="lab" transform="translate(0 11)">2</text></g><g class="a16 c2 node n11 p0" transform="translate(5 1.93589)"><g class="a11 leaf node n3 p0 sample" transform="translate(-3.33333 0.494086)"><path class="edge" d="M 0 0 V -0.494086 H 3.33333" /><rect class="sym" height="6" width="6" x="-3" y="-3" /><text class="lab" transform="translate(0 11)">3</text></g><g class="a11 leaf node n4 p0 sample" transform="translate(3.33333 0.494086)"><path class="edge" d="M 0 0 V -0.494086 H -3.33333" /><rect class="sym" height="6" width="6" x="-3" y="-3" /><text class="lab" transform="translate(0 11)">4</text></g><path class="edge" d="M 0 0 V -1.93589 H -5" /><circle class="sym" cx="0" cy="0" r="3" /><text class="lab rgt" transform="translate(3 -7)">11</text></g><path class="edge" d="M 0 0 V -3.85116 H -5.83333" /><circle class="sym" cx="0" cy="0" r="3" /><text class="lab rgt" transform="translate(3 -7)">16</text></g><path class="edge" d="M 0 0 V -1.65528 H -6.25" /><circle class="sym" cx="0" cy="0" r="3" /><text class="lab rgt" transform="translate(3 -7)">17</text></g><path class="edge" d="M 0 0 V -39.0107 H 26.25" /><circle class="sym" cx="0" cy="0" r="3" /><text class="lab lft" transform="translate(-3 -7)">21</text></g><g class="a45 c2 node n44 p0" transform="translate(26.25 4.834)"><g class="a44 c2 node n37 p0" transform="translate(11.25 16.9147)"><g class="a37 c1 node n28 p0" transform="translate(3.33333 4.0169)"><g class="a28 leaf node n27 p0" transform="translate(0.0 3.022e-06)"><path class="edge" d="M 0 0 V -3.022e-06 H 0.0" /><circle class="sym" cx="0" cy="0" r="3" /><text class="lab" transform="translate(0 11)">27</text></g><path class="edge" d="M 0 0 V -4.0169 H -3.33333" /><circle class="sym" cx="0" cy="0" r="3" /><text class="lab rgt" transform="translate(3 -7)">28</text></g><g class="a37 c1 node n33 p0" transform="translate(-3.33333 1.31819)"><g class="a33 c1 node n25 p0" transform="translate(0.0 3.7336)"><g class="a25 leaf node n24 p0" transform="translate(0.0 3.022e-06)"><path class="edge" d="M 0 0 V -3.022e-06 H 0.0" /><circle class="sym" cx="0" cy="0" r="3" /><text class="lab" transform="translate(0 11)">24</text></g><path class="edge" d="M 0 0 V -3.7336 H 0.0" /><circle class="sym" cx="0" cy="0" r="3" /><text class="lab lft" transform="translate(-3 -7)">25</text></g><path class="edge" d="M 0 0 V -1.31819 H 3.33333" /><circle class="sym" cx="0" cy="0" r="3" /><text class="lab lft" transform="translate(-3 -7)">33</text></g><path class="edge" d="M 0 0 V -16.9147 H -11.25" /><circle class="sym" cx="0" cy="0" r="3" /><text class="lab rgt" transform="translate(3 -7)">37</text></g><g class="a44 c2 node n42 p0" transform="translate(-11.25 12.618)"><g class="a42 c2 node n22 p0" transform="translate(9.16667 14.7555)"><g class="a22 leaf node n9 p0 sample" transform="translate(3.33333 14.7396)"><path class="edge" d="M 0 0 V -14.7396 H -3.33333" /><rect class="sym" height="6" width="6" x="-3" y="-3" /><text class="lab" transform="translate(0 11)">9</text></g><g class="a22 c1 node n18 p0" transform="translate(-3.33333 7.80737)"><g class="a18 leaf node n8 p0 sample" transform="translate(0.0 6.93219)"><path class="edge" d="M 0 0 V -6.93219 H 0.0" /><rect class="sym" height="6" width="6" x="-3" y="-3" /><text class="lab" transform="translate(0 11)">8</text></g><path class="edge" d="M 0 0 V -7.80737 H 3.33333" /><circle class="sym" cx="0" cy="0" r="3" /><text class="lab lft" transform="translate(-3 -7)">18</text></g><path class="edge" d="M 0 0 V -14.7555 H -9.16667" /><circle class="sym" cx="0" cy="0" r="3" /><text class="lab rgt" transform="translate(3 -7)">22</text></g><g class="a42 c1 node n38 p0" transform="translate(-9.16667 1.25171)"><g class="a38 c1 node n29 p0" transform="translate(0.0 5.9362)"><g class="a29 c2 node n15 p0" transform="translate(0.0 20.9867)"><g class="a15 leaf node n5 p0 sample" transform="translate(-5 1.32047)"><path class="edge" d="M 0 0 V -1.32047 H 5" /><rect class="sym" height="6" width="6" x="-3" y="-3" /><text class="lab" transform="translate(0 11)">5</text></g><g class="a15 c2 node n10 p0" transform="translate(5 1.08955)"><g class="a10 leaf node n6 p0 sample" transform="translate(-3.33333 0.230919)"><path class="edge" d="M 0 0 V -0.230919 H 3.33333" /><rect class="sym" height="6" width="6" x="-3" y="-3" /><text class="lab" transform="translate(0 11)">6</text></g><g class="a10 leaf node n7 p0 sample" transform="translate(3.33333 0.230919)"><path class="edge" d="M 0 0 V -0.230919 H -3.33333" /><rect class="sym" height="6" width="6" x="-3" y="-3" /><text class="lab" transform="translate(0 11)">7</text></g><path class="edge" d="M 0 0 V -1.08955 H -5" /><circle class="sym" cx="0" cy="0" r="3" /><text class="lab rgt" transform="translate(3 -7)">10</text></g><path class="edge" d="M 0 0 V -20.9867 H 0.0" /><circle class="sym" cx="0" cy="0" r="3" /><text class="lab lft" transform="translate(-3 -7)">15</text></g><path class="edge" d="M 0 0 V -5.9362 H 0.0" /><circle class="sym" cx="0" cy="0" r="3" /><text class="lab lft" transform="translate(-3 -7)">29</text></g><path class="edge" d="M 0 0 V -1.25171 H 9.16667" /><circle class="sym" cx="0" cy="0" r="3" /><text class="lab lft" transform="translate(-3 -7)">38</text></g><path class="edge" d="M 0 0 V -12.618 H 11.25" /><circle class="sym" cx="0" cy="0" r="3" /><text class="lab lft" transform="translate(-3 -7)">42</text></g><path class="edge" d="M 0 0 V -4.834 H -26.25" /><circle class="sym" cx="0" cy="0" r="3" /><text class="lab rgt" transform="translate(3 -7)">44</text></g><path class="edge" d="M 0 0 V -14.7933 H 0.0" /><circle class="sym" cx="0" cy="0" r="3" /><text class="lab lft" transform="translate(-3 -7)">45</text></g><path class="edge" d="M 0 0 V -32.8596 H 35.2083" /><circle class="sym" cx="0" cy="0" r="3" /><text class="lab lft" transform="translate(-3 -7)">46</text></g><g class="a50 c2 node n49 p0" transform="translate(35.2083 31.7128)"><g class="a49 c2 node n43 p0" transform="translate(-10.4167 31.7458)"><g class="a43 c2 node n36 p0" transform="translate(-9.16667 7.07455)"><g class="a36 c1 node n26 p0" transform="translate(-3.33333 2.8854)"><g class="a26 c1 node n23 p0" transform="translate(0.0 1.03488)"><g class="a23 c1 node n14 p0" transform="translate(0.0 19.4646)"><g class="a14 leaf node n13 p0" transform="translate(0.0 3.022e-06)"><path class="edge" d="M 0 0 V -3.022e-06 H 0.0" /><circle class="sym" cx="0" cy="0" r="3" /><text class="lab" transform="translate(0 11)">13</text></g><path class="edge" d="M 0 0 V -19.4646 H 0.0" /><circle class="sym" cx="0" cy="0" r="3" /><text class="lab lft" transform="translate(-3 -7)">14</text></g><path class="edge" d="M 0 0 V -1.03488 H 0.0" /><circle class="sym" cx="0" cy="0" r="3" /><text class="lab lft" transform="translate(-3 -7)">23</text></g><path class="edge" d="M 0 0 V -2.8854 H 3.33333" /><circle class="sym" cx="0" cy="0" r="3" /><text class="lab lft" transform="translate(-3 -7)">26</text></g><g class="a36 c1 node n35 p0" transform="translate(3.33333 0.186687)"><g class="a35 leaf node n34 p0" transform="translate(0.0 3.022e-06)"><path class="edge" d="M 0 0 V -3.022e-06 H 0.0" /><circle class="sym" cx="0" cy="0" r="3" /><text class="lab" transform="translate(0 11)">34</text></g><path class="edge" d="M 0 0 V -0.186687 H -3.33333" /><circle class="sym" cx="0" cy="0" r="3" /><text class="lab rgt" transform="translate(3 -7)">35</text></g><path class="edge" d="M 0 0 V -7.07455 H 9.16667" /><circle class="sym" cx="0" cy="0" r="3" /><text class="lab lft" transform="translate(-3 -7)">36</text></g><g class="a43 c2 node n41 p0" transform="translate(9.16667 1.86415)"><g class="a41 c2 m0 node n32 p0 s0" transform="translate(-5 5.58139)"><g class="a32 c1 node n20 p0" transform="translate(-3.33333 16.7637)"><g class="a20 leaf node n19 p0" transform="translate(0.0 3.022e-06)"><path class="edge" d="M 0 0 V -3.022e-06 H 0.0" /><circle class="sym" cx="0" cy="0" r="3" /><text class="lab" transform="translate(0 11)">19</text></g><path class="edge" d="M 0 0 V -16.7637 H 3.33333" /><circle class="sym" cx="0" cy="0" r="3" /><text class="lab lft" transform="translate(-3 -7)">20</text></g><g class="a32 c1 node n31 p0" transform="translate(3.33333 1.38874)"><g class="a31 leaf node n30 p0" transform="translate(0.0 3.022e-06)"><path class="edge" d="M 0 0 V -3.022e-06 H 0.0" /><circle class="sym" cx="0" cy="0" r="3" /><text class="lab" transform="translate(0 11)">30</text></g><path class="edge" d="M 0 0 V -1.38874 H -3.33333" /><circle class="sym" cx="0" cy="0" r="3" /><text class="lab rgt" transform="translate(3 -7)">31</text></g><path class="edge" d="M 0 0 V -5.58139 H 5" /><g class="mut m0 s0 unknown_time" transform="translate(0 -2.79069)"><line x1="0" x2="0" y1="0" y2="2.79069" /><path class="sym" d="M -3,-3 l 6,6 M -3,3 l 6,-6" /><text class="lab lft" transform="translate(-5 0)">0</text></g><circle class="sym" cx="0" cy="0" r="3" /><text class="lab lft" transform="translate(-3 -7)">32</text></g><g class="a41 c1 node n40 p0" transform="translate(5 1.03393)"><g class="a40 leaf node n39 p0" transform="translate(0.0 3.022e-06)"><path class="edge" d="M 0 0 V -3.022e-06 H 0.0" /><circle class="sym" cx="0" cy="0" r="3" /><text class="lab" transform="translate(0 11)">39</text></g><path class="edge" d="M 0 0 V -1.03393 H -5" /><circle class="sym" cx="0" cy="0" r="3" /><text class="lab rgt" transform="translate(3 -7)">40</text></g><path class="edge" d="M 0 0 V -1.86415 H -9.16667" /><circle class="sym" cx="0" cy="0" r="3" /><text class="lab rgt" transform="translate(3 -7)">41</text></g><path class="edge" d="M 0 0 V -31.7458 H 10.4167" /><circle class="sym" cx="0" cy="0" r="3" /><text class="lab lft" transform="translate(-3 -7)">43</text></g><g class="a49 c1 node n48 p0" transform="translate(10.4167 1.14686)"><g class="a48 leaf node n47 p0" transform="translate(0.0 3.022e-06)"><path class="edge" d="M 0 0 V -3.022e-06 H 0.0" /><circle class="sym" cx="0" cy="0" r="3" /><text class="lab" transform="translate(0 11)">47</text></g><path class="edge" d="M 0 0 V -1.14686 H -10.4167" /><circle class="sym" cx="0" cy="0" r="3" /><text class="lab rgt" transform="translate(3 -7)">48</text></g><path class="edge" d="M 0 0 V -31.7128 H -35.2083" /><circle class="sym" cx="0" cy="0" r="3" /><text class="lab rgt" transform="translate(3 -7)">49</text></g><circle class="sym" cx="0" cy="0" r="3" /><text class="lab" transform="translate(0 -11)">50</text></g></g></g></g></g></svg>