<svg baseProfile="full" height="250" version="1.1" width="1000" xmlns="http://www.w3.org/2000/svg" xmlns:ev="http://www.w3.org/2001/xml-events" xmlns:xlink="http://www.w3.org/1999/xlink"><defs><style type="text/css"><![CDATA[.background path {fill: #808080; fill-opacity: 0}.background path:nth-child(odd) {fill-opacity: .1}.x-regions rect {fill: yellow; stroke: black; opacity: 0.5}.axes {font-size: 14px}.x-axis .tick .lab {font-weight: bold; dominant-baseline: hanging}.axes, .tree {font-size: 14px; text-anchor: middle}.axes line, .edge {stroke: black; fill: none}.axes .ax-skip {stroke-dasharray: 4}.y-axis .grid {stroke: #FAFAFA}.node > .sym {fill: black; stroke: none}.site > .sym {stroke: black}.mut text {fill: red; font-style: italic}.mut.extra text {fill: hotpink}.mut line {fill: none; stroke: none}.mut .sym {fill: none; stroke: red}.mut.extra .sym {stroke: hotpink}.node .mut .sym {stroke-width: 1.5px}.tree text, .tree-sequence text {dominant-baseline: central}.plotbox .lab.lft {text-anchor: end}.plotbox .lab.rgt {text-anchor: start}.polytomy line {stroke: black; stroke-dasharray: 1px, 1px}.polytomy text {paint-order:stroke;stroke-width:0.3em;stroke:white}]]></style></defs><g class="tree-sequence"><g class="background"><path d="M20,0 l960,0 l0,188.2 l0,25 l0,5 l-960,0 l0,-5 l0,-25 l0,-188.2z" /></g><g class="axes"><g class="x-axis"><g class="title" transform="translate(500 250)"><text class="lab" text-anchor="middle" transform="translate(0 -11)">Genome position</text></g><line class="ax-line" x1="20" x2="980" y1="213.2" y2="213.2" /><g class="ticks"><g class="tick" transform="translate(20 213.2)"><line x1="0" x2="0" y1="0" y2="5" /><g transform="translate(0 6)"><text class="lab">0</text></g></g><g class="tick" transform="translate(980 213.2)"><line x1="0" x2="0" y1="0" y2="5" /><g transform="translate(0 6)"><text class="lab">1</text></g></g></g></g></g><g class="plotbox trees"><g class="tree t0" transform="translate(20 0)"><g class="plotbox"><g class="c2 node n18 p0 root" transform="translate(554.75 26.8)"><g class="a18 c2 node n16 p0" transform="translate(258.75 137.727)"><g class="a16 i6 leaf node n6 p0 sample" transform="translate(80.5 6.8733)"><path class="edge" d="M 0 0 V -6.8733 H -80.5" /><rect class="sym" height="6" width="6" x="-3" y="-3" /><text class="lab" transform="translate(0 11)">6</text></g><g class="a16 c2 node n14 p0" transform="translate(-80.5 3.98319)"><g class="a14 i8 leaf node n8 p0 sample" transform="translate(69 2.89011)"><path class="edge" d="M 0 0 V -2.89011 H -69" /><rect class="sym" height="6" width="6" x="-3" y="-3" /><text class="lab" transform="translate(0 11)">8</text></g><g class="a14 c2 node n11 p0" transform="translate(-69 2.45963)"><g class="a11 i3 leaf node n3 p0 sample" transform="translate(-46 0.430477)"><path class="edge" d="M 0 0 V -0.430477 H 46" /><rect class="sym" height="6" width="6" x="-3" y="-3" /><text class="lab" transform="translate(0 11)">3</text></g><g class="a11 i5 leaf node n5 p0 sample" transform="translate(46 0.430477)"><path class="edge" d="M 0 0 V -0.430477 H -46" /><rect class="sym" height="6" width="6" x="-3" y="-3" /><text class="lab" transform="translate(0 11)">5</text></g><path class="edge" d="M 0 0 V -2.45963 H 69" /><circle class="sym" cx="0" cy="0" r="3" /><text class="lab lft" transform="translate(-3 -7)">11</text></g><path class="edge" d="M 0 0 V -3.98319 H 80.5" /><circle class="sym" cx="0" cy="0" r="3" /><text class="lab lft" transform="translate(-3 -7)">14</text></g><path class="edge" d="M 0 0 V -137.727 H -258.75" /><circle class="sym" cx="0" cy="0" r="3" /><text class="lab rgt" transform="translate(3 -7)">16</text></g><g class="a18 c2 node n17 p0" transform="translate(-258.75 132.342)"><g class="a17 c2 node n12 p0" transform="translate(161 11.8006)"><g class="a12 i4 leaf node n4 p0 sample" transform="translate(69 0.456969)"><path class="edge" d="M 0 0 V -0.456969 H -69" /><rect class="sym" height="6" width="6" x="-3" y="-3" /><text class="lab" transform="translate(0 11)">4</text></g><g class="a12 c2 node n10 p0" transform="translate(-69 0.320101)"><g class="a10 i1 leaf node n1 p0 sample" transform="translate(-46 0.136868)"><path class="edge" d="M 0 0 V -0.136868 H 46" /><rect class="sym" height="6" width="6" x="-3" y="-3" /><text class="lab" transform="translate(0 11)">1</text></g><g class="a10 i2 leaf node n2 p0 sample" transform="translate(46 0.136868)"><path class="edge" d="M 0 0 V -0.136868 H -46" /><rect class="sym" height="6" width="6" x="-3" y="-3" /><text class="lab" transform="translate(0 11)">2</text></g><path class="edge" d="M 0 0 V -0.320101 H 69" /><circle class="sym" cx="0" cy="0" r="3" /><text class="lab lft" transform="translate(-3 -7)">10</text></g><path class="edge" d="M 0 0 V -11.8006 H -161" /><circle class="sym" cx="0" cy="0" r="3" /><text class="lab rgt" transform="translate(3 -7)">12</text></g><g class="a17 c2 node n15 p0" transform="translate(-161 6.64489)"><g class="a15 i0 leaf node n0 p0 sample" transform="translate(-69 5.61265)"><path class="edge" d="M 0 0 V -5.61265 H 69" /><rect class="sym" height="6" width="6" x="-3" y="-3" /><text class="lab" transform="translate(0 11)">0</text></g><g class="a15 c2 node n13 p0" transform="translate(69 3.28125)"><g class="a13 i7 leaf node n7 p0 sample" transform="translate(-46 2.3314)"><path class="edge" d="M 0 0 V -2.3314 H 46" /><rect class="sym" height="6" width="6" x="-3" y="-3" /><text class="lab" transform="translate(0 11)">7</text></g><g class="a13 i9 leaf node n9 p0 sample" transform="translate(46 2.3314)"><path class="edge" d="M 0 0 V -2.3314 H -46" /><rect class="sym" height="6" width="6" x="-3" y="-3" /><text class="lab" transform="translate(0 11)">9</text></g><path class="edge" d="M 0 0 V -3.28125 H -69" /><circle class="sym" cx="0" cy="0" r="3" /><text class="lab rgt" transform="translate(3 -7)">13</text></g><path class="edge" d="M 0 0 V -6.64489 H 161" /><circle class="sym" cx="0" cy="0" r="3" /><text class="lab lft" transform="translate(-3 -7)">15</text></g><path class="edge" d="M 0 0 V -132.342 H 258.75" /><circle class="sym" cx="0" cy="0" r="3" /><text class="lab lft" transform="translate(-3 -7)">17</text></g><circle class="sym" cx="0" cy="0" r="3" /><text class="lab" transform="translate(0 -11)">18</text></g></g></g></g></g></svg>